<svg xmlns="http://www.w3.org/2000/svg" xmlns:xlink="http://www.w3.org/1999/xlink" viewBox="0 0 87.95 33.61"><defs><style>.cls-1{fill:#fff;fill-rule:evenodd;}.cls-2{mask:url(#mask);}</style><mask id="mask" x="0" y="0" width="87.95" height="33.61" maskUnits="userSpaceOnUse"><g id="mask-2"><polygon id="path-1" class="cls-1" points="0 33.61 87.95 33.61 87.95 0 0 0 0 33.61"/></g></mask></defs><title>logo</title><g id="Layer_2" data-name="Layer 2"><g id="Layer_1-2" data-name="Layer 1"><g id="Homepage"><g id="Futures-First-Homepage-1024"><g id="Updated-logo"><polygon id="Fill-1" class="cls-1" points="40.32 4.92 46.44 4.92 46.44 6.58 42.18 6.58 42.18 9.19 45.55 9.19 45.55 10.84 42.18 10.84 42.18 14.95 40.32 14.95 40.32 4.92"/><g id="Group-25"><path id="Fill-2" class="cls-1" d="M51.92,8.15H53.7V15H51.92V14a2.17,2.17,0,0,1-1.87,1.1c-1.6,0-2.68-1-2.68-2.92v-4h1.79v3.7c0,1.1.67,1.51,1.29,1.51a1.4,1.4,0,0,0,1.47-1.58Z"/><polygon id="Fill-4" class="cls-1" points="58.03 8.15 59.47 8.15 59.47 9.58 58.03 9.58 58.03 14.95 56.27 14.95 56.27 9.58 55.03 9.58 55.03 8.15 56.27 8.15 56.27 5.56 58.03 5.56 58.03 8.15"/><path id="Fill-6" class="cls-1" d="M65.27,8.15H67V15H65.27V14a2.18,2.18,0,0,1-1.88,1.1c-1.6,0-2.67-1-2.67-2.92v-4h1.79v3.7c0,1.1.67,1.51,1.29,1.51a1.4,1.4,0,0,0,1.47-1.58Z"/><path id="Fill-8" class="cls-1" d="M70.82,15H69.05V8.15h1.77v1.6A2.07,2.07,0,0,1,72.74,8a2.42,2.42,0,0,1,1.12.24l-.3,1.6a2.63,2.63,0,0,0-1-.18c-1.21,0-1.71,1.07-1.71,2.88Z"/><path id="Fill-10" class="cls-1" d="M79.69,10.93A1.62,1.62,0,0,0,78,9.49a1.67,1.67,0,0,0-1.79,1.44Zm1.71,1.21H76.22a1.72,1.72,0,0,0,1.87,1.45,1.92,1.92,0,0,0,1.71-.87l1.35.73a3.65,3.65,0,0,1-6.69-1.92A3.4,3.4,0,0,1,78,8a3.35,3.35,0,0,1,3.45,3.52c0,.17,0,.45,0,.61Z"/><path id="Fill-12" class="cls-1" d="M82.65,10a2.33,2.33,0,0,1,2.5-2c1.28,0,2.59.58,2.64,2.14H86.11a.83.83,0,0,0-.92-.7c-.44,0-.86.16-.86.67,0,.27.32.46.71.56l1.14.28A2.05,2.05,0,0,1,88,13c0,1.38-1.36,2.09-2.77,2.09a2.52,2.52,0,0,1-2.74-2.28H84.1a1.15,1.15,0,0,0,1.25.86c.49,0,.89-.3.89-.69s-.25-.52-.74-.64l-.93-.23c-1.76-.48-1.92-1.28-1.92-2.08"/><polygon id="Fill-14" class="cls-1" points="40.32 18.62 46.44 18.62 46.44 20.28 42.18 20.28 42.18 22.88 45.55 22.88 45.55 24.54 42.18 24.54 42.18 28.64 40.32 28.64 40.32 18.62"/><g class="cls-2"><path id="Fill-16" class="cls-1" d="M47.84,28.64h1.75V21.85H47.84Zm.88-10.49a1.07,1.07,0,1,1,0,2.14,1.07,1.07,0,1,1,0-2.14Z"/></g><g class="cls-2"><path id="Fill-18" class="cls-1" d="M53.38,28.64H51.6V21.85h1.78v1.6a2,2,0,0,1,1.91-1.75,2.29,2.29,0,0,1,1.12.25l-.3,1.6a2.51,2.51,0,0,0-1-.19c-1.21,0-1.7,1.08-1.7,2.88Z"/></g><g class="cls-2"><path id="Fill-19" class="cls-1" d="M57.24,23.72a2.34,2.34,0,0,1,2.5-2c1.28,0,2.59.58,2.65,2.14H60.7c0-.51-.52-.7-.91-.7s-.86.16-.86.67c0,.28.32.47.71.57l1.14.27a2.05,2.05,0,0,1,1.77,2c0,1.38-1.37,2.1-2.78,2.1A2.52,2.52,0,0,1,57,26.5H58.7a1.13,1.13,0,0,0,1.25.86c.49,0,.88-.29.88-.68s-.24-.53-.74-.64l-.93-.24c-1.76-.48-1.92-1.28-1.92-2.08"/></g><g class="cls-2"><polygon id="Fill-20" class="cls-1" points="66.45 21.85 67.89 21.85 67.89 23.27 66.45 23.27 66.45 28.64 64.69 28.64 64.69 23.27 63.45 23.27 63.45 21.85 64.69 21.85 64.69 19.26 66.45 19.26 66.45 21.85"/></g><g class="cls-2"><polygon id="Fill-21" class="cls-1" points="8.56 21.74 25.05 21.74 25.05 19.43 8.56 19.43 8.56 21.74"/></g><g class="cls-2"><polygon id="Fill-22" class="cls-1" points="20.74 32.28 18.43 32.28 18.43 9.47 31 9.47 31 11.78 20.74 11.78 20.74 32.28"/></g><g class="cls-2"><polygon id="Fill-23" class="cls-1" points="15.18 32.28 12.88 32.28 12.88 11.78 2.6 11.78 2.6 9.47 15.18 9.47 15.18 32.28"/></g><g class="cls-2"><path id="Fill-24" class="cls-1" d="M16.81,2.31A14.5,14.5,0,1,0,31.3,16.81,14.51,14.51,0,0,0,16.81,2.31m0,31.3a16.81,16.81,0,1,1,16.8-16.8,16.83,16.83,0,0,1-16.8,16.8"/></g></g></g></g></g></g></g></svg>